<svg width="20" height="20" viewBox="0 0 20 20" fill="none" xmlns="http://www.w3.org/2000/svg">
<path fill-rule="evenodd" clip-rule="evenodd" d="M16.1917 7.43283L17.7667 7.95866C18.1067 8.07283 18.3342 8.39199 18.3334 8.75033V11.2503C18.3309 11.6053 18.1034 11.9203 17.7667 12.0328L16.1917 12.5578L16.9334 14.042C17.0917 14.362 17.0284 14.747 16.775 15.0003L15 16.7753C14.75 17.0203 14.3742 17.0837 14.0584 16.9328L12.575 16.192L12.05 17.7662C11.935 18.1062 11.6159 18.3345 11.2584 18.3337H8.75836C8.40002 18.3345 8.08169 18.1062 7.96669 17.7662L7.44169 16.192L5.95836 16.9328C5.63836 17.092 5.25252 17.0278 5.00002 16.7753L3.22502 15.0003C2.97586 14.7487 2.91252 14.3678 3.06669 14.0495L3.80836 12.567L2.23336 12.0412C1.89336 11.927 1.66586 11.6087 1.66669 11.2503V8.75033C1.66919 8.3945 1.89669 8.08033 2.23336 7.96699L3.80836 7.44199L3.06669 5.95783C2.90836 5.63783 2.97252 5.25283 3.22502 5.00033L5.00002 3.22533C5.25086 2.97616 5.63169 2.91283 5.95002 3.06699L7.43336 3.80866L7.95836 2.23366C8.07252 1.89366 8.39169 1.66616 8.75002 1.66699H11.25C11.605 1.66949 11.92 1.89699 12.0334 2.23366L12.5584 3.80866L14.0417 3.06699C14.3617 2.90866 14.7475 2.97199 15 3.22533L16.775 5.00033C17.0242 5.25116 17.0875 5.63199 16.9334 5.95033L16.1917 7.43283ZM16.6667 10.6503L15.6667 10.9837C14.7909 11.2678 14.3117 12.207 14.5959 13.0828C14.6234 13.1695 14.6584 13.2528 14.7 13.3337L15.175 14.2837L14.2584 15.1995L13.3334 14.7003C12.51 14.2895 11.5092 14.6245 11.0984 15.4487C11.0625 15.5187 11.0334 15.592 11.0084 15.667L10.675 16.667H9.35002L9.01669 15.667C8.73252 14.7912 7.79252 14.312 6.91669 14.5962C6.83086 14.6237 6.74752 14.6587 6.66669 14.7003L5.71669 15.1753L4.80002 14.2578L5.30002 13.3337C5.72252 12.5162 5.40169 11.5103 4.58336 11.0878C4.50336 11.0462 4.41919 11.0112 4.33336 10.9837L3.33336 10.6503V9.35033L4.33336 9.01699C5.20836 8.73283 5.68836 7.79283 5.40419 6.91699C5.37669 6.83116 5.34169 6.74699 5.30002 6.66699L4.82502 5.74199L5.74169 4.82533L6.66669 5.30033C7.48419 5.72199 8.49002 5.40116 8.91252 4.58366C8.95419 4.50283 8.98919 4.41949 9.01669 4.33366L9.35002 3.33366H10.65L10.9834 4.33366C11.2675 5.20866 12.2067 5.68866 13.0825 5.40449C13.1692 5.37699 13.2525 5.34199 13.3334 5.30033L14.2834 4.82533L15.2 5.74199L14.7 6.66699C14.2892 7.49033 14.625 8.49116 15.4484 8.90199C15.5192 8.93699 15.5917 8.96699 15.6667 8.99199L16.6667 9.32449V10.6503ZM6.66669 10.0003C6.66669 8.15949 8.15919 6.66699 10 6.66699C11.8409 6.66699 13.3334 8.15949 13.3334 10.0003C13.3334 11.8412 11.8409 13.3337 10 13.3337C8.15919 13.3337 6.66669 11.8412 6.66669 10.0003ZM8.33336 10.0003C8.33336 10.9203 9.08002 11.667 10 11.667C10.92 11.667 11.6667 10.9203 11.6667 10.0003C11.6667 9.07949 10.92 8.33366 10 8.33366C9.08002 8.33366 8.33336 9.07949 8.33336 10.0003Z" fill="#ECB136"/>
</svg>
