<svg width="24" height="24" viewBox="0 0 24 24" fill="none" xmlns="http://www.w3.org/2000/svg">
<rect width="24" height="24" stroke="#ECB136"/>
<path fill-rule="evenodd" clip-rule="evenodd" d="M10.5002 8C10.2241 8 10.0002 8.22386 10.0002 8.5C10.0002 8.77614 10.2241 9 10.5002 9H21.5002C21.7764 9 22.0002 8.77614 22.0002 8.5C22.0002 8.22386 21.7764 8 21.5002 8H10.5002ZM10.5002 12C10.2241 12 10.0002 12.2239 10.0002 12.5C10.0002 12.7761 10.2241 13 10.5002 13H21.5002C21.7764 13 22.0002 12.7761 22.0002 12.5C22.0002 12.2239 21.7764 12 21.5002 12H10.5002ZM10.0002 16.5C10.0002 16.2239 10.2241 16 10.5002 16H21.5002C21.7764 16 22.0002 16.2239 22.0002 16.5C22.0002 16.7761 21.7764 17 21.5002 17H10.5002C10.2241 17 10.0002 16.7761 10.0002 16.5ZM5.02025 15.6021C5.11825 15.699 5.24625 15.7481 5.37425 15.7481C5.50225 15.7481 5.63025 15.699 5.72825 15.6021C5.92325 15.4061 5.92325 15.09 5.72825 14.8941L3.20725 12.3741L5.72825 9.85305C5.92325 9.65805 5.92325 9.34205 5.72825 9.14605C5.53225 8.95105 5.21625 8.95105 5.02025 9.14605L2.14625 12.0201C1.95125 12.2161 1.95125 12.5321 2.14625 12.7271L5.02025 15.6021Z" fill="#F2A900"/>
</svg>
