<svg width="24" height="25" viewBox="0 0 24 25" fill="none" xmlns="http://www.w3.org/2000/svg">
<path fill-rule="evenodd" clip-rule="evenodd" d="M3 7.25C3 4.62479 3.02811 3.75 6.5 3.75C9.97189 3.75 10 4.62479 10 7.25C10 9.87521 10.0111 10.75 6.5 10.75C2.98893 10.75 3 9.87521 3 7.25Z" stroke="#ECB136" stroke-width="1.5" stroke-linecap="round" stroke-linejoin="round"/>
<path fill-rule="evenodd" clip-rule="evenodd" d="M14 7.25C14 4.62479 14.0281 3.75 17.5 3.75C20.9719 3.75 21 4.62479 21 7.25C21 9.87521 21.0111 10.75 17.5 10.75C13.9889 10.75 14 9.87521 14 7.25Z" stroke="#ECB136" stroke-width="1.5" stroke-linecap="round" stroke-linejoin="round"/>
<path fill-rule="evenodd" clip-rule="evenodd" d="M3 18.25C3 15.6248 3.02811 14.75 6.5 14.75C9.97189 14.75 10 15.6248 10 18.25C10 20.8752 10.0111 21.75 6.5 21.75C2.98893 21.75 3 20.8752 3 18.25Z" stroke="#ECB136" stroke-width="1.5" stroke-linecap="round" stroke-linejoin="round"/>
<path fill-rule="evenodd" clip-rule="evenodd" d="M14 18.25C14 15.6248 14.0281 14.75 17.5 14.75C20.9719 14.75 21 15.6248 21 18.25C21 20.8752 21.0111 21.75 17.5 21.75C13.9889 21.75 14 20.8752 14 18.25Z" stroke="#ECB136" stroke-width="1.5" stroke-linecap="round" stroke-linejoin="round"/>
</svg>
