<svg width="48" height="49" viewBox="0 0 48 49" fill="none" xmlns="http://www.w3.org/2000/svg">
<rect y="0.75" width="48" height="48" rx="8" fill="#ECB136"/>
<path d="M31.7753 31.3961L28.8091 28.4539C29.9605 27.0183 30.5181 25.196 30.3672 23.3619C30.2164 21.5278 29.3685 19.8212 27.998 18.593C26.6275 17.3649 24.8385 16.7085 22.9989 16.7588C21.1593 16.8091 19.4089 17.5624 18.1076 18.8637C16.8063 20.165 16.053 21.9154 16.0027 23.755C15.9524 25.5946 16.6088 27.3836 17.8369 28.7541C19.0651 30.1246 20.7717 30.9725 22.6058 31.1233C24.4399 31.2742 26.2621 30.7166 27.6978 29.5652L30.64 32.5075C30.7143 32.5824 30.8028 32.6419 30.9002 32.6825C30.9976 32.7231 31.1021 32.744 31.2077 32.744C31.3132 32.744 31.4177 32.7231 31.5152 32.6825C31.6126 32.6419 31.701 32.5824 31.7753 32.5075C31.9194 32.3584 32 32.1591 32 31.9518C32 31.7444 31.9194 31.5452 31.7753 31.3961ZM23.2124 29.5652C22.1055 29.5652 21.0235 29.237 20.1031 28.622C19.1827 28.007 18.4654 27.1329 18.0418 26.1103C17.6182 25.0876 17.5073 23.9623 17.7233 22.8767C17.9392 21.791 18.4723 20.7938 19.255 20.0111C20.0377 19.2284 21.0349 18.6954 22.1206 18.4794C23.2062 18.2635 24.3315 18.3743 25.3542 18.7979C26.3768 19.2215 27.2509 19.9388 27.8659 20.8592C28.4809 21.7796 28.8091 22.8616 28.8091 23.9685C28.8091 25.4529 28.2195 26.8764 27.1699 27.926C26.1203 28.9756 24.6968 29.5652 23.2124 29.5652Z" fill="white"/>
</svg>
