<svg width="25" height="24" viewBox="0 0 25 24" fill="none" xmlns="http://www.w3.org/2000/svg">
<path d="M6.5 15C6.23478 15 5.98043 15.1054 5.79289 15.2929C5.60536 15.4804 5.5 15.7348 5.5 16V19C5.5 19.2652 5.60536 19.5196 5.79289 19.7071C5.98043 19.8946 6.23478 20 6.5 20C6.76522 20 7.01957 19.8946 7.20711 19.7071C7.39464 19.5196 7.5 19.2652 7.5 19V16C7.5 15.7348 7.39464 15.4804 7.20711 15.2929C7.01957 15.1054 6.76522 15 6.5 15ZM10.5 12C10.2348 12 9.98043 12.1054 9.79289 12.2929C9.60536 12.4804 9.5 12.7348 9.5 13V19C9.5 19.2652 9.60536 19.5196 9.79289 19.7071C9.98043 19.8946 10.2348 20 10.5 20C10.7652 20 11.0196 19.8946 11.2071 19.7071C11.3946 19.5196 11.5 19.2652 11.5 19V13C11.5 12.7348 11.3946 12.4804 11.2071 12.2929C11.0196 12.1054 10.7652 12 10.5 12ZM18.5 4C18.2348 4 17.9804 4.10536 17.7929 4.29289C17.6054 4.48043 17.5 4.73478 17.5 5V19C17.5 19.2652 17.6054 19.5196 17.7929 19.7071C17.9804 19.8946 18.2348 20 18.5 20C18.7652 20 19.0196 19.8946 19.2071 19.7071C19.3946 19.5196 19.5 19.2652 19.5 19V5C19.5 4.73478 19.3946 4.48043 19.2071 4.29289C19.0196 4.10536 18.7652 4 18.5 4ZM14.5 8C14.2348 8 13.9804 8.10536 13.7929 8.29289C13.6054 8.48043 13.5 8.73478 13.5 9V19C13.5 19.2652 13.6054 19.5196 13.7929 19.7071C13.9804 19.8946 14.2348 20 14.5 20C14.7652 20 15.0196 19.8946 15.2071 19.7071C15.3946 19.5196 15.5 19.2652 15.5 19V9C15.5 8.73478 15.3946 8.48043 15.2071 8.29289C15.0196 8.10536 14.7652 8 14.5 8Z" fill="white"/>
</svg>
